<?xml version="1.0" encoding="UTF-8" standalone="no"?><svg xmlns="http://www.w3.org/2000/svg" xmlns:xlink="http://www.w3.org/1999/xlink" contentScriptType="application/ecmascript" contentStyleType="text/css" height="227px" preserveAspectRatio="none" style="width:602px;height:227px;" version="1.1" viewBox="0 0 602 227" width="602px" zoomAndPan="magnify"><defs><filter height="300%" id="f16tqapw3h3joy" width="300%" x="-1" y="-1"><feGaussianBlur result="blurOut" stdDeviation="2.0"/><feColorMatrix in="blurOut" result="blurOut2" type="matrix" values="0 0 0 0 0 0 0 0 0 0 0 0 0 0 0 0 0 0 .4 0"/><feOffset dx="4.0" dy="4.0" in="blurOut2" result="blurOut3"/><feBlend in="SourceGraphic" in2="blurOut3" mode="normal"/></filter></defs><g><!--class ClassDiagram--><rect fill="#FEFECE" filter="url(#f16tqapw3h3joy)" height="48" id="ClassDiagram" style="stroke: #A80036; stroke-width: 1.5;" width="111" x="480.5" y="156"/><ellipse cx="495.5" cy="172" fill="#ADD1B2" rx="11" ry="11" style="stroke: #A80036; stroke-width: 1.0;"/><path d="M497.9731,178.1431 Q497.3921,178.4419 496.7529,178.5913 Q496.1138,178.7407 495.4082,178.7407 Q492.9014,178.7407 491.5815,177.0889 Q490.2617,175.437 490.2617,172.3159 Q490.2617,169.1865 491.5815,167.5347 Q492.9014,165.8828 495.4082,165.8828 Q496.1138,165.8828 496.7612,166.0322 Q497.4087,166.1816 497.9731,166.4805 L497.9731,169.2031 Q497.3423,168.6221 496.7488,168.3523 Q496.1553,168.0825 495.5244,168.0825 Q494.1797,168.0825 493.4949,169.1492 Q492.8101,170.2158 492.8101,172.3159 Q492.8101,174.4077 493.4949,175.4744 Q494.1797,176.541 495.5244,176.541 Q496.1553,176.541 496.7488,176.2712 Q497.3423,176.0015 497.9731,175.4204 Z "/><text fill="#000000" font-family="sans-serif" font-size="12" lengthAdjust="spacingAndGlyphs" textLength="79" x="509.5" y="176.5352">ClassDiagram</text><line style="stroke: #A80036; stroke-width: 1.5;" x1="481.5" x2="590.5" y1="188" y2="188"/><line style="stroke: #A80036; stroke-width: 1.5;" x1="481.5" x2="590.5" y1="196" y2="196"/><!--class Classes--><rect fill="#FEFECE" filter="url(#f16tqapw3h3joy)" height="60.9551" id="Classes" style="stroke: #A80036; stroke-width: 1.5;" width="134" x="90" y="14.5"/><ellipse cx="131.55" cy="30.5" fill="#B4A7E5" rx="11" ry="11" style="stroke: #A80036; stroke-width: 1.0;"/><path d="M127.9777,26.7651 L127.9777,24.6069 L135.3571,24.6069 L135.3571,26.7651 L132.8918,26.7651 L132.8918,34.8418 L135.3571,34.8418 L135.3571,37 L127.9777,37 L127.9777,34.8418 L130.4431,34.8418 L130.4431,26.7651 Z "/><text fill="#000000" font-family="sans-serif" font-size="12" font-style="italic" lengthAdjust="spacingAndGlyphs" textLength="43" x="151.45" y="35.0352">Classes</text><line style="stroke: #A80036; stroke-width: 1.5;" x1="91" x2="223" y1="46.5" y2="46.5"/><line style="stroke: #A80036; stroke-width: 1.5;" x1="91" x2="223" y1="54.5" y2="54.5"/><text fill="#000000" font-family="sans-serif" font-size="11" lengthAdjust="spacingAndGlyphs" textLength="122" x="96" y="69.1348">list() : List&lt;Class&lt;?&gt;&gt;</text><!--class ClsFiltered--><rect fill="#FEFECE" filter="url(#f16tqapw3h3joy)" height="73.9102" id="ClsFiltered" style="stroke: #A80036; stroke-width: 1.5;" width="134" x="316" y="8"/><ellipse cx="349.9" cy="24" fill="#ADD1B2" rx="11" ry="11" style="stroke: #A80036; stroke-width: 1.0;"/><path d="M352.3731,30.1431 Q351.7921,30.4419 351.1529,30.5913 Q350.5138,30.7407 349.8082,30.7407 Q347.3014,30.7407 345.9815,29.0889 Q344.6617,27.437 344.6617,24.3159 Q344.6617,21.1865 345.9815,19.5347 Q347.3014,17.8828 349.8082,17.8828 Q350.5138,17.8828 351.1612,18.0322 Q351.8087,18.1816 352.3731,18.4805 L352.3731,21.2031 Q351.7423,20.6221 351.1488,20.3523 Q350.5553,20.0825 349.9244,20.0825 Q348.5797,20.0825 347.8949,21.1492 Q347.2101,22.2158 347.2101,24.3159 Q347.2101,26.4077 347.8949,27.4744 Q348.5797,28.541 349.9244,28.541 Q350.5553,28.541 351.1488,28.2712 Q351.7423,28.0015 352.3731,27.4204 Z "/><text fill="#000000" font-family="sans-serif" font-size="12" lengthAdjust="spacingAndGlyphs" textLength="60" x="368.1" y="28.5352">ClsFiltered</text><line style="stroke: #A80036; stroke-width: 1.5;" x1="317" x2="449" y1="40" y2="40"/><text fill="#000000" font-family="sans-serif" font-size="11" lengthAdjust="spacingAndGlyphs" textLength="92" x="322" y="54.6348">ignored : Classes</text><line style="stroke: #A80036; stroke-width: 1.5;" x1="317" x2="449" y1="60.9551" y2="60.9551"/><text fill="#000000" font-family="sans-serif" font-size="11" lengthAdjust="spacingAndGlyphs" textLength="122" x="322" y="75.5898">list() : List&lt;Class&lt;?&gt;&gt;</text><!--class ClsInPackage--><rect fill="#FEFECE" filter="url(#f16tqapw3h3joy)" height="73.9102" id="ClsInPackage" style="stroke: #A80036; stroke-width: 1.5;" width="134" x="6" y="143"/><ellipse cx="33.15" cy="159" fill="#ADD1B2" rx="11" ry="11" style="stroke: #A80036; stroke-width: 1.0;"/><path d="M35.6231,165.1431 Q35.0421,165.4419 34.4029,165.5913 Q33.7638,165.7407 33.0582,165.7407 Q30.5514,165.7407 29.2315,164.0889 Q27.9117,162.437 27.9117,159.3159 Q27.9117,156.1865 29.2315,154.5347 Q30.5514,152.8828 33.0582,152.8828 Q33.7638,152.8828 34.4112,153.0322 Q35.0587,153.1816 35.6231,153.4805 L35.6231,156.2031 Q34.9923,155.6221 34.3988,155.3523 Q33.8053,155.0825 33.1744,155.0825 Q31.8297,155.0825 31.1449,156.1492 Q30.4601,157.2158 30.4601,159.3159 Q30.4601,161.4077 31.1449,162.4744 Q31.8297,163.541 33.1744,163.541 Q33.8053,163.541 34.3988,163.2712 Q34.9923,163.0015 35.6231,162.4204 Z "/><text fill="#000000" font-family="sans-serif" font-size="12" lengthAdjust="spacingAndGlyphs" textLength="75" x="49.85" y="163.5352">ClsInPackage</text><line style="stroke: #A80036; stroke-width: 1.5;" x1="7" x2="139" y1="175" y2="175"/><text fill="#000000" font-family="sans-serif" font-size="11" lengthAdjust="spacingAndGlyphs" textLength="115" x="12" y="189.6348">packageName : String</text><line style="stroke: #A80036; stroke-width: 1.5;" x1="7" x2="139" y1="195.9551" y2="195.9551"/><text fill="#000000" font-family="sans-serif" font-size="11" lengthAdjust="spacingAndGlyphs" textLength="122" x="12" y="210.5898">list() : List&lt;Class&lt;?&gt;&gt;</text><!--class ClsWithNames--><rect fill="#FEFECE" filter="url(#f16tqapw3h3joy)" height="73.9102" id="ClsWithNames" style="stroke: #A80036; stroke-width: 1.5;" width="134" x="175" y="143"/><ellipse cx="199.45" cy="159" fill="#ADD1B2" rx="11" ry="11" style="stroke: #A80036; stroke-width: 1.0;"/><path d="M201.9231,165.1431 Q201.3421,165.4419 200.7029,165.5913 Q200.0638,165.7407 199.3582,165.7407 Q196.8514,165.7407 195.5315,164.0889 Q194.2117,162.437 194.2117,159.3159 Q194.2117,156.1865 195.5315,154.5347 Q196.8514,152.8828 199.3582,152.8828 Q200.0638,152.8828 200.7112,153.0322 Q201.3587,153.1816 201.9231,153.4805 L201.9231,156.2031 Q201.2923,155.6221 200.6988,155.3523 Q200.1053,155.0825 199.4744,155.0825 Q198.1297,155.0825 197.4449,156.1492 Q196.7601,157.2158 196.7601,159.3159 Q196.7601,161.4077 197.4449,162.4744 Q198.1297,163.541 199.4744,163.541 Q200.1053,163.541 200.6988,163.2712 Q201.2923,163.0015 201.9231,162.4204 Z "/><text fill="#000000" font-family="sans-serif" font-size="12" lengthAdjust="spacingAndGlyphs" textLength="81" x="215.55" y="163.5352">ClsWithNames</text><line style="stroke: #A80036; stroke-width: 1.5;" x1="176" x2="308" y1="175" y2="175"/><text fill="#000000" font-family="sans-serif" font-size="11" lengthAdjust="spacingAndGlyphs" textLength="113" x="181" y="189.6348">names : List&lt;String&gt;</text><line style="stroke: #A80036; stroke-width: 1.5;" x1="176" x2="308" y1="195.9551" y2="195.9551"/><text fill="#000000" font-family="sans-serif" font-size="11" lengthAdjust="spacingAndGlyphs" textLength="122" x="181" y="210.5898">list() : List&lt;Class&lt;?&gt;&gt;</text><!--class Diagram--><rect fill="#FEFECE" filter="url(#f16tqapw3h3joy)" height="73.9102" id="Diagram" style="stroke: #A80036; stroke-width: 1.5;" width="102" x="485" y="8"/><ellipse cx="509.45" cy="24" fill="#B4A7E5" rx="11" ry="11" style="stroke: #A80036; stroke-width: 1.0;"/><path d="M505.8777,20.2651 L505.8777,18.1069 L513.2571,18.1069 L513.2571,20.2651 L510.7918,20.2651 L510.7918,28.3418 L513.2571,28.3418 L513.2571,30.5 L505.8777,30.5 L505.8777,28.3418 L508.3431,28.3418 L508.3431,20.2651 Z "/><text fill="#000000" font-family="sans-serif" font-size="12" font-style="italic" lengthAdjust="spacingAndGlyphs" textLength="49" x="525.55" y="28.5352">Diagram</text><line style="stroke: #A80036; stroke-width: 1.5;" x1="486" x2="586" y1="40" y2="40"/><line style="stroke: #A80036; stroke-width: 1.5;" x1="486" x2="586" y1="48" y2="48"/><text fill="#000000" font-family="sans-serif" font-size="11" lengthAdjust="spacingAndGlyphs" textLength="90" x="491" y="62.6348">content() : String</text><text fill="#000000" font-family="sans-serif" font-size="11" lengthAdjust="spacingAndGlyphs" textLength="52" x="491" y="75.5898">print(File)</text><!--link Classes to ClsFiltered--><path d="M229.32,45 C255.28,45 284.55,45 310.52,45 " fill="none" id="Classes-ClsFiltered" style="stroke: #A80036; stroke-width: 1.0;"/><polygon fill="#A80036" points="315.67,45,306.67,41,310.67,45,306.67,49,315.67,45" style="stroke: #A80036; stroke-width: 1.0;"/><polygon fill="#A80036" points="224.2,45,233.2,49,229.2,45,233.2,41,224.2,45" style="stroke: #A80036; stroke-width: 1.0;"/><text fill="#000000" font-family="sans-serif" font-size="13" lengthAdjust="spacingAndGlyphs" textLength="55" x="242.5" y="38.5684">/ignored</text><!--link Classes to ClsInPackage--><path d="M127.62,92.52 C117.17,109.06 105.59,127.41 95.78,142.93 " fill="none" id="Classes-ClsInPackage" style="stroke: #A80036; stroke-width: 1.0;"/><polygon fill="none" points="121.76,88.69,138.36,75.52,133.6,96.16,121.76,88.69" style="stroke: #A80036; stroke-width: 1.0;"/><!--link Classes to ClsWithNames--><path d="M186.73,92.52 C197.3,109.06 209.03,127.41 218.95,142.93 " fill="none" id="Classes-ClsWithNames" style="stroke: #A80036; stroke-width: 1.0;"/><polygon fill="none" points="180.74,96.14,175.86,75.52,192.53,88.6,180.74,96.14" style="stroke: #A80036; stroke-width: 1.0;"/><!--link Diagram to ClassDiagram--><path d="M536,102.62 C536,121.26 536,140.96 536,155.68 " fill="none" id="Diagram-ClassDiagram" style="stroke: #A80036; stroke-width: 1.0;"/><polygon fill="none" points="529,102.34,536,82.34,543,102.34,529,102.34" style="stroke: #A80036; stroke-width: 1.0;"/><!--
@startuml

class "ClassDiagram"

interface "Classes" {
  list() : List<Class<?>>
}

class "ClsFiltered" {
  ignored : Classes
  list() : List<Class<?>>
}

class "ClsInPackage" {
  packageName : String
  list() : List<Class<?>>
}

class "ClsWithNames" {
  names : List<String>
  list() : List<Class<?>>
}

interface "Diagram" {
  content() : String
  print(File)
}

"Classes" <-> "ClsFiltered" : /ignored
"Classes" <|- - "ClsInPackage"
"Classes" <|- - "ClsWithNames"
"Diagram" <|- - "ClassDiagram"

@enduml

PlantUML version 1.2018.12(Sun Oct 21 12:15:15 CEST 2018)
(GPL source distribution)
Java Runtime: OpenJDK Runtime Environment
JVM: OpenJDK 64-Bit Server VM
Java Version: 11.0.2+9
Operating System: Mac OS X
OS Version: 10.15.4
Default Encoding: UTF-8
Language: fr
Country: FR
--></g></svg>