<?xml version="1.0" encoding="UTF-8" standalone="no"?><svg xmlns="http://www.w3.org/2000/svg" xmlns:xlink="http://www.w3.org/1999/xlink" contentScriptType="application/ecmascript" contentStyleType="text/css" height="240px" preserveAspectRatio="none" style="width:818px;height:240px;" version="1.1" viewBox="0 0 818 240" width="818px" zoomAndPan="magnify"><defs><filter height="300%" id="f8kzg1vp231ng" width="300%" x="-1" y="-1"><feGaussianBlur result="blurOut" stdDeviation="2.0"/><feColorMatrix in="blurOut" result="blurOut2" type="matrix" values="0 0 0 0 0 0 0 0 0 0 0 0 0 0 0 0 0 0 .4 0"/><feOffset dx="4.0" dy="4.0" in="blurOut2" result="blurOut3"/><feBlend in="SourceGraphic" in2="blurOut3" mode="normal"/></filter></defs><g><!--class ClassDiagram--><rect fill="#FEFECE" filter="url(#f8kzg1vp231ng)" height="48" id="ClassDiagram" style="stroke: #A80036; stroke-width: 1.5;" width="111" x="492" y="162.5"/><ellipse cx="507" cy="178.5" fill="#ADD1B2" rx="11" ry="11" style="stroke: #A80036; stroke-width: 1.0;"/><path d="M509.4731,184.6431 Q508.8921,184.9419 508.2529,185.0913 Q507.6138,185.2407 506.9082,185.2407 Q504.4014,185.2407 503.0815,183.5889 Q501.7617,181.937 501.7617,178.8159 Q501.7617,175.6865 503.0815,174.0347 Q504.4014,172.3828 506.9082,172.3828 Q507.6138,172.3828 508.2612,172.5322 Q508.9087,172.6816 509.4731,172.9805 L509.4731,175.7031 Q508.8423,175.1221 508.2488,174.8523 Q507.6553,174.5825 507.0244,174.5825 Q505.6797,174.5825 504.9949,175.6492 Q504.3101,176.7158 504.3101,178.8159 Q504.3101,180.9077 504.9949,181.9744 Q505.6797,183.041 507.0244,183.041 Q507.6553,183.041 508.2488,182.7712 Q508.8423,182.5015 509.4731,181.9204 Z "/><text fill="#000000" font-family="sans-serif" font-size="12" lengthAdjust="spacingAndGlyphs" textLength="79" x="521" y="183.0352">ClassDiagram</text><line style="stroke: #A80036; stroke-width: 1.5;" x1="493" x2="602" y1="194.5" y2="194.5"/><line style="stroke: #A80036; stroke-width: 1.5;" x1="493" x2="602" y1="202.5" y2="202.5"/><!--class Classes--><rect fill="#FEFECE" filter="url(#f8kzg1vp231ng)" height="60.9551" id="Classes" style="stroke: #A80036; stroke-width: 1.5;" width="134" x="101.5" y="14.5"/><ellipse cx="143.05" cy="30.5" fill="#B4A7E5" rx="11" ry="11" style="stroke: #A80036; stroke-width: 1.0;"/><path d="M139.4777,26.7651 L139.4777,24.6069 L146.8571,24.6069 L146.8571,26.7651 L144.3918,26.7651 L144.3918,34.8418 L146.8571,34.8418 L146.8571,37 L139.4777,37 L139.4777,34.8418 L141.9431,34.8418 L141.9431,26.7651 Z "/><text fill="#000000" font-family="sans-serif" font-size="12" font-style="italic" lengthAdjust="spacingAndGlyphs" textLength="43" x="162.95" y="35.0352">Classes</text><line style="stroke: #A80036; stroke-width: 1.5;" x1="102.5" x2="234.5" y1="46.5" y2="46.5"/><line style="stroke: #A80036; stroke-width: 1.5;" x1="102.5" x2="234.5" y1="54.5" y2="54.5"/><text fill="#000000" font-family="sans-serif" font-size="11" lengthAdjust="spacingAndGlyphs" textLength="122" x="107.5" y="69.1348">list() : List&lt;Class&lt;?&gt;&gt;</text><!--class ClsFiltered--><rect fill="#FEFECE" filter="url(#f8kzg1vp231ng)" height="73.9102" id="ClsFiltered" style="stroke: #A80036; stroke-width: 1.5;" width="134" x="327.5" y="8"/><ellipse cx="361.4" cy="24" fill="#ADD1B2" rx="11" ry="11" style="stroke: #A80036; stroke-width: 1.0;"/><path d="M363.8731,30.1431 Q363.2921,30.4419 362.6529,30.5913 Q362.0138,30.7407 361.3082,30.7407 Q358.8014,30.7407 357.4815,29.0889 Q356.1617,27.437 356.1617,24.3159 Q356.1617,21.1865 357.4815,19.5347 Q358.8014,17.8828 361.3082,17.8828 Q362.0138,17.8828 362.6612,18.0322 Q363.3087,18.1816 363.8731,18.4805 L363.8731,21.2031 Q363.2423,20.6221 362.6488,20.3523 Q362.0553,20.0825 361.4244,20.0825 Q360.0797,20.0825 359.3949,21.1492 Q358.7101,22.2158 358.7101,24.3159 Q358.7101,26.4077 359.3949,27.4744 Q360.0797,28.541 361.4244,28.541 Q362.0553,28.541 362.6488,28.2712 Q363.2423,28.0015 363.8731,27.4204 Z "/><text fill="#000000" font-family="sans-serif" font-size="12" lengthAdjust="spacingAndGlyphs" textLength="60" x="379.6" y="28.5352">ClsFiltered</text><line style="stroke: #A80036; stroke-width: 1.5;" x1="328.5" x2="460.5" y1="40" y2="40"/><text fill="#000000" font-family="sans-serif" font-size="11" lengthAdjust="spacingAndGlyphs" textLength="92" x="333.5" y="54.6348">ignored : Classes</text><line style="stroke: #A80036; stroke-width: 1.5;" x1="328.5" x2="460.5" y1="60.9551" y2="60.9551"/><text fill="#000000" font-family="sans-serif" font-size="11" lengthAdjust="spacingAndGlyphs" textLength="122" x="333.5" y="75.5898">list() : List&lt;Class&lt;?&gt;&gt;</text><!--class ClsInPackage--><rect fill="#FEFECE" filter="url(#f8kzg1vp231ng)" height="86.8652" id="ClsInPackage" style="stroke: #A80036; stroke-width: 1.5;" width="143" x="6" y="143"/><ellipse cx="37.2" cy="159" fill="#ADD1B2" rx="11" ry="11" style="stroke: #A80036; stroke-width: 1.0;"/><path d="M39.6731,165.1431 Q39.0921,165.4419 38.4529,165.5913 Q37.8138,165.7407 37.1082,165.7407 Q34.6014,165.7407 33.2815,164.0889 Q31.9617,162.437 31.9617,159.3159 Q31.9617,156.1865 33.2815,154.5347 Q34.6014,152.8828 37.1082,152.8828 Q37.8138,152.8828 38.4612,153.0322 Q39.1087,153.1816 39.6731,153.4805 L39.6731,156.2031 Q39.0423,155.6221 38.4488,155.3523 Q37.8553,155.0825 37.2244,155.0825 Q35.8797,155.0825 35.1949,156.1492 Q34.5101,157.2158 34.5101,159.3159 Q34.5101,161.4077 35.1949,162.4744 Q35.8797,163.541 37.2244,163.541 Q37.8553,163.541 38.4488,163.2712 Q39.0423,163.0015 39.6731,162.4204 Z "/><text fill="#000000" font-family="sans-serif" font-size="12" lengthAdjust="spacingAndGlyphs" textLength="75" x="54.8" y="163.5352">ClsInPackage</text><line style="stroke: #A80036; stroke-width: 1.5;" x1="7" x2="148" y1="175" y2="175"/><text fill="#000000" font-family="sans-serif" font-size="11" lengthAdjust="spacingAndGlyphs" textLength="115" x="12" y="189.6348">packageName : String</text><text fill="#000000" font-family="sans-serif" font-size="11" lengthAdjust="spacingAndGlyphs" textLength="131" x="12" y="202.5898">classGraph : ClassGraph</text><line style="stroke: #A80036; stroke-width: 1.5;" x1="7" x2="148" y1="208.9102" y2="208.9102"/><text fill="#000000" font-family="sans-serif" font-size="11" lengthAdjust="spacingAndGlyphs" textLength="122" x="12" y="223.5449">list() : List&lt;Class&lt;?&gt;&gt;</text><!--class ClsWithNames--><rect fill="#FEFECE" filter="url(#f8kzg1vp231ng)" height="86.8652" id="ClsWithNames" style="stroke: #A80036; stroke-width: 1.5;" width="151" x="184" y="143"/><ellipse cx="216.1" cy="159" fill="#ADD1B2" rx="11" ry="11" style="stroke: #A80036; stroke-width: 1.0;"/><path d="M218.5731,165.1431 Q217.9921,165.4419 217.3529,165.5913 Q216.7138,165.7407 216.0082,165.7407 Q213.5014,165.7407 212.1815,164.0889 Q210.8617,162.437 210.8617,159.3159 Q210.8617,156.1865 212.1815,154.5347 Q213.5014,152.8828 216.0082,152.8828 Q216.7138,152.8828 217.3612,153.0322 Q218.0087,153.1816 218.5731,153.4805 L218.5731,156.2031 Q217.9423,155.6221 217.3488,155.3523 Q216.7553,155.0825 216.1244,155.0825 Q214.7797,155.0825 214.0949,156.1492 Q213.4101,157.2158 213.4101,159.3159 Q213.4101,161.4077 214.0949,162.4744 Q214.7797,163.541 216.1244,163.541 Q216.7553,163.541 217.3488,163.2712 Q217.9423,163.0015 218.5731,162.4204 Z "/><text fill="#000000" font-family="sans-serif" font-size="12" lengthAdjust="spacingAndGlyphs" textLength="81" x="233.9" y="163.5352">ClsWithNames</text><line style="stroke: #A80036; stroke-width: 1.5;" x1="185" x2="334" y1="175" y2="175"/><text fill="#000000" font-family="sans-serif" font-size="11" lengthAdjust="spacingAndGlyphs" textLength="113" x="190" y="189.6348">names : List&lt;String&gt;</text><text fill="#000000" font-family="sans-serif" font-size="11" lengthAdjust="spacingAndGlyphs" textLength="139" x="190" y="202.5898">classLoader : ClassLoader</text><line style="stroke: #A80036; stroke-width: 1.5;" x1="185" x2="334" y1="208.9102" y2="208.9102"/><text fill="#000000" font-family="sans-serif" font-size="11" lengthAdjust="spacingAndGlyphs" textLength="122" x="190" y="223.5449">list() : List&lt;Class&lt;?&gt;&gt;</text><!--class Diagram--><rect fill="#FEFECE" filter="url(#f8kzg1vp231ng)" height="73.9102" id="Diagram" style="stroke: #A80036; stroke-width: 1.5;" width="102" x="496.5" y="8"/><ellipse cx="520.95" cy="24" fill="#B4A7E5" rx="11" ry="11" style="stroke: #A80036; stroke-width: 1.0;"/><path d="M517.3777,20.2651 L517.3777,18.1069 L524.7571,18.1069 L524.7571,20.2651 L522.2918,20.2651 L522.2918,28.3418 L524.7571,28.3418 L524.7571,30.5 L517.3777,30.5 L517.3777,28.3418 L519.8431,28.3418 L519.8431,20.2651 Z "/><text fill="#000000" font-family="sans-serif" font-size="12" font-style="italic" lengthAdjust="spacingAndGlyphs" textLength="49" x="537.05" y="28.5352">Diagram</text><line style="stroke: #A80036; stroke-width: 1.5;" x1="497.5" x2="597.5" y1="40" y2="40"/><line style="stroke: #A80036; stroke-width: 1.5;" x1="497.5" x2="597.5" y1="48" y2="48"/><text fill="#000000" font-family="sans-serif" font-size="11" lengthAdjust="spacingAndGlyphs" textLength="90" x="502.5" y="62.6348">content() : String</text><text fill="#000000" font-family="sans-serif" font-size="11" lengthAdjust="spacingAndGlyphs" textLength="52" x="502.5" y="75.5898">print(File)</text><!--class InvalidPackageException--><rect fill="#FEFECE" filter="url(#f8kzg1vp231ng)" height="48" id="InvalidPackageException" style="stroke: #A80036; stroke-width: 1.5;" width="173" x="634" y="21"/><ellipse cx="649" cy="37" fill="#ADD1B2" rx="11" ry="11" style="stroke: #A80036; stroke-width: 1.0;"/><path d="M651.4731,43.1431 Q650.8921,43.4419 650.2529,43.5913 Q649.6138,43.7407 648.9082,43.7407 Q646.4014,43.7407 645.0815,42.0889 Q643.7617,40.437 643.7617,37.3159 Q643.7617,34.1865 645.0815,32.5347 Q646.4014,30.8828 648.9082,30.8828 Q649.6138,30.8828 650.2612,31.0322 Q650.9087,31.1816 651.4731,31.4805 L651.4731,34.2031 Q650.8423,33.6221 650.2488,33.3523 Q649.6553,33.0825 649.0244,33.0825 Q647.6797,33.0825 646.9949,34.1492 Q646.3101,35.2158 646.3101,37.3159 Q646.3101,39.4077 646.9949,40.4744 Q647.6797,41.541 649.0244,41.541 Q649.6553,41.541 650.2488,41.2712 Q650.8423,41.0015 651.4731,40.4204 Z "/><text fill="#000000" font-family="sans-serif" font-size="12" lengthAdjust="spacingAndGlyphs" textLength="141" x="663" y="41.5352">InvalidPackageException</text><line style="stroke: #A80036; stroke-width: 1.5;" x1="635" x2="806" y1="53" y2="53"/><line style="stroke: #A80036; stroke-width: 1.5;" x1="635" x2="806" y1="61" y2="61"/><!--link Classes to ClsFiltered--><path d="M240.82,45 C266.78,45 296.05,45 322.02,45 " fill="none" id="Classes-ClsFiltered" style="stroke: #A80036; stroke-width: 1.0;"/><polygon fill="#A80036" points="327.17,45,318.17,41,322.17,45,318.17,49,327.17,45" style="stroke: #A80036; stroke-width: 1.0;"/><polygon fill="#A80036" points="235.7,45,244.7,49,240.7,45,244.7,41,235.7,45" style="stroke: #A80036; stroke-width: 1.0;"/><text fill="#000000" font-family="sans-serif" font-size="13" lengthAdjust="spacingAndGlyphs" textLength="55" x="254" y="38.5684">/ignored</text><!--link Classes to ClsInPackage--><path d="M138.26,92.36 C127.6,108.7 115.67,126.98 105.23,142.99 " fill="none" id="Classes-ClsInPackage" style="stroke: #A80036; stroke-width: 1.0;"/><polygon fill="none" points="132.41,88.51,149.2,75.58,144.14,96.16,132.41,88.51" style="stroke: #A80036; stroke-width: 1.0;"/><!--link Classes to ClsWithNames--><path d="M198.74,92.36 C209.4,108.7 221.33,126.98 231.77,142.99 " fill="none" id="Classes-ClsWithNames" style="stroke: #A80036; stroke-width: 1.0;"/><polygon fill="none" points="192.86,96.16,187.8,75.58,204.59,88.51,192.86,96.16" style="stroke: #A80036; stroke-width: 1.0;"/><!--link Diagram to ClassDiagram--><path d="M547.5,102.32 C547.5,123.19 547.5,145.74 547.5,162.09 " fill="none" id="Diagram-ClassDiagram" style="stroke: #A80036; stroke-width: 1.0;"/><polygon fill="none" points="540.5,102.29,547.5,82.29,554.5,102.29,540.5,102.29" style="stroke: #A80036; stroke-width: 1.0;"/><!--
@startuml

class "ClassDiagram"

interface "Classes" {
  list() : List<Class<?>>
}

class "ClsFiltered" {
  ignored : Classes
  list() : List<Class<?>>
}

class "ClsInPackage" {
  packageName : String
  classGraph : ClassGraph
  list() : List<Class<?>>
}

class "ClsWithNames" {
  names : List<String>
  classLoader : ClassLoader
  list() : List<Class<?>>
}

interface "Diagram" {
  content() : String
  print(File)
}

class "InvalidPackageException"

"Classes" <-> "ClsFiltered" : /ignored
"Classes" <|- - "ClsInPackage"
"Classes" <|- - "ClsWithNames"
"Diagram" <|- - "ClassDiagram"

@enduml

PlantUML version 1.2018.12(Sun Oct 21 12:15:15 CEST 2018)
(GPL source distribution)
Java Runtime: OpenJDK Runtime Environment
JVM: Eclipse OpenJ9 VM
Java Version: 1.8.0_252-b09
Operating System: Mac OS X
OS Version: 10.15.4
Default Encoding: UTF-8
Language: fr
Country: FR
--></g></svg>